<svg xmlns="http://www.w3.org/2000/svg" version="1.1" xmlns:xlink="http://www.w3.org/1999/xlink" xmlns:svgjs="http://svgjs.dev/svgjs" viewBox="0 0 800 400"><path d="M117.20429229736328,183.1541290283203C128.2915073140462,175.53166676839191,154.45637720743815,144.42055094401042,174.5519561767578,143.72760009765625C194.64753514607747,143.03464925130208,196.89365366617838,179.9163759358724,221.14694213867188,179.5699005126953C245.40023061116537,179.22342508951823,278.3452801513672,142.1087235514323,300,141.93548583984375C321.6547198486328,141.7622481282552,307.1684511311849,180.23298278808593,333.15411376953125,178.67384338378906C359.1397764078776,177.1147039794922,410.50178975423177,134.56392547607422,434.4085998535156,133.8709716796875C458.3154099527995,133.17801788330078,432.903217976888,175.089599609375,456.8100280761719,175.089599609375C480.71683817545573,175.089599609375,533.6379909261068,134.21744710286458,558.0645141601562,133.8709716796875C582.4910373942057,133.52449625651042,562.3655883789063,173.2974853515625,583.1541137695312,173.2974853515625C603.9426391601562,173.2974853515625,641.3380900065105,133.69773396809896,665.5913696289062,133.8709716796875C689.844649251302,134.04420939127604,700.2867016601563,166.39784545898436,708.6021118164062,174.19354248046875" fill="none" stroke-width="13" stroke="#fff480" stroke-linecap="round" transform="matrix(1.2955403307969204,-4.7116306830223665e-17,-0.22843871491546683,1.2955403307969204,-98.72317862496948,-5.354717420568136)" stroke-dasharray="0 0"></path><defs><linearGradient id="SvgjsLinearGradient1003"><stop stop-color="hsl(37, 99%, 67%)" offset="0"></stop><stop stop-color="hsl(316, 73%, 52%)" offset="1"></stop></linearGradient></defs></svg>